<?xml version="1.0" encoding="utf-8"?>
<!-- Generator: Adobe Illustrator 20.1.0, SVG Export Plug-In . SVG Version: 6.00 Build 0)  -->
<svg version="1.1" id="Layer_1" xmlns="http://www.w3.org/2000/svg" xmlns:xlink="http://www.w3.org/1999/xlink" x="0px" y="0px"
	 viewBox="0 0 800 405" style="enable-background:new 0 0 800 405;" xml:space="preserve">
<style type="text/css">
	.st0{fill:#D4E5A0;}
	.st1{fill:#FFFFFF;stroke:#000000;stroke-miterlimit:3.8637;}
	.st2{fill-rule:evenodd;clip-rule:evenodd;fill:#00461C;}
	.st3{fill:none;stroke:#00461C;stroke-width:0.1912;stroke-miterlimit:3.8637;}
	.st4{fill-rule:evenodd;clip-rule:evenodd;}
	.st5{fill:#5AAD41;}
	.st6{fill:none;stroke:#5AAD41;stroke-width:2.2999;stroke-linecap:round;stroke-miterlimit:3.8637;}
	.st7{fill:none;stroke:#5AAD41;stroke-width:2.8749;stroke-linecap:round;stroke-miterlimit:3.8637;}
	.st8{fill-rule:evenodd;clip-rule:evenodd;fill:#5AAD41;}
	.st9{fill:none;stroke:#5AAD41;stroke-width:1.7249;stroke-linecap:round;stroke-miterlimit:3.8637;}
	.st10{fill:none;stroke:#FFFFFF;stroke-width:3.4499;stroke-linecap:round;stroke-miterlimit:3.8637;}
</style>
<g>
	<path class="st0" d="M225.8,389.2l361.5-1.1l0.9-233.1c-7-60.2-85.2-107.6-180.5-107.6c-94.9,0-172.8,47-180.4,106.8L225.8,389.2
		L225.8,389.2z"/>
	<polygon class="st1" points="229,140.8 581.4,140.8 581.4,159.5 229,159.5 229,140.8 	"/>
	<polygon class="st1" points="229,319.5 581.4,319.5 581.4,338.2 229,338.2 229,319.5 	"/>
	<polygon class="st1" points="230.8,260.3 583.2,260.3 583.2,279.1 230.8,279.1 230.8,260.3 	"/>
	<polygon class="st1" points="229.7,200.7 582.1,200.7 582.1,219.5 229.7,219.5 229.7,200.7 	"/>
	<polygon class="st1" points="266.9,81.1 546,81.1 546,99.9 266.9,99.9 266.9,81.1 	"/>
	<polygon class="st1" points="398.8,400.9 398.8,46.3 417.5,46.3 417.5,400.9 398.8,400.9 	"/>
	<polygon class="st1" points="459.1,400.8 459.1,46.3 477.9,46.3 477.9,400.8 459.1,400.8 	"/>
	<polygon class="st1" points="521.1,400.8 521.1,76.5 539.9,76.5 539.9,400.8 521.1,400.8 	"/>
	<polygon class="st1" points="338.4,400.8 338.4,46.3 357.2,46.3 357.2,400.8 338.4,400.8 	"/>
	<polygon class="st1" points="276.8,400.8 276.8,76.5 295.6,76.5 295.6,400.8 276.8,400.8 	"/>
	<polygon class="st1" points="228.4,382.1 581.5,382.1 581.5,400.8 228.4,400.8 228.4,382.1 	"/>
	<path class="st1" d="M215.1,158.3c1.2-61.6,82.7-121.9,193.7-123.7c105.3,0,182.9,58.5,188.8,124.3l-0.5,241.9h-18.8V159
		c-4.3-56.2-75.4-100.9-170.2-104.5c-96.3,0-167.7,49.5-174.4,105.7v240.7h-18.8C215.1,400.8,215,158.3,215.1,158.3L215.1,158.3z"/>
	<path class="st2" d="M83.2,347.9c-10.8,4.8-23.3,5.5-35.5,2.3c-2.3-0.5-4.6-1.3-6.8-2.3l-28,0c3.8,4.9,8.6,9.2,14.2,12.7
		c19.3,11.5,49.5,9.7,67.2-3.9c3.8-2.6,6.9-5.6,9.6-8.7L83.2,347.9L83.2,347.9z"/>
	<path class="st2" d="M99.1,335.8c-0.2,0.3-0.3,0.6-0.5,0.9c-4.5,4.9-9.7,8.6-15.4,11.2l20.7,0c3.2-3.7,5.7-7.8,7.8-12.1L99.1,335.8
		L99.1,335.8z M253.3,335.8c-0.1,0.4-0.2,0.9-0.3,1.3l-2.1,0.7H174c-1-0.5-1.5-1.2-1.9-2L253.3,335.8L253.3,335.8z M359.9,335.8
		c-12.7,4.5-28.1,2.5-42.5,3h-30.2l-3.6-3H359.9L359.9,335.8z M454.7,335.8c-3.2,1.5-6.6,2.7-9.9,3.4c-12.7,2.9-25.2,1.6-36.1-3.4
		L454.7,335.8L454.7,335.8z M12.9,347.9c-2.8-3.7-5-7.7-6.5-12.1l19.6,0c4,5.1,9.2,9.4,14.9,12.1L12.9,347.9L12.9,347.9z"/>
	<path class="st2" d="M105.1,323.7c-1.8,4.1-3.7,8.1-6,12.1l12.6,0c1.9-3.9,3.6-8,5.1-12.1L105.1,323.7L105.1,323.7z M216.2,323.7
		c1,1.7,2.4,3.1,4.8,3.4l1.5-3.4H238l0,2.6c2,6,9.1,3.9,13.9,5.3c1.4,0.9,1.6,2.6,1.4,4.1l-81.1,0c-0.5-1.4-0.3-3.1,0.1-4.4
		c4.4-2.6,10.4-0.8,14.9-2.8c2.1-0.7,4.7-2.5,5.3-4.8L216.2,323.7L216.2,323.7z M293.2,323.7c1.2,1.8,2.5,3.5,3.9,5.1
		c1.9,1.6,4.8,3,7.1,1.4c2.2-1.7,3.3-4,3.9-6.6l15,0l0,2.3c2.3,3.7,7.3,4.1,11.7,4.3c8.6,0.9,16.6-1.1,22.3-6.6l18.3,0
		c-2.6,4.1-6.2,7.6-11.1,10.1c-1.4,0.8-2.9,1.4-4.5,1.9l-76.4,0l-0.6-0.5c-2.7-3.8-5.3-7.7-7.8-11.5L293.2,323.7L293.2,323.7z
		 M453.2,323.7c-6.3,5.9-13.9,9.4-22.7,9.4c-8.5-0.1-15.9-3.4-21.8-9.4l-16.7,0c4.8,5.2,10.5,9.2,16.6,12.1l46,0
		c6.1-2.9,11.8-7,16.6-12.1L453.2,323.7L453.2,323.7z M6.4,335.8c-1.3-3.8-2.1-7.8-2.3-12.1l15.6,0c1.3,4.3,3.5,8.4,6.4,12.1
		L6.4,335.8L6.4,335.8z"/>
	<path class="st2" d="M114.5,299.6c-3.1,8-6,16.2-9.5,24.1l11.7,0c2.9-8.1,5.4-16.4,9-24.1L114.5,299.6L114.5,299.6z M205.4,299.6
		c2.3,6.1,5.4,12.1,7.7,18.2c1.2,1.7,1.9,4,3.1,5.9l-23.7,0c0-0.1,0-0.1,0-0.2l-0.4-6l-7.2-17.9H205.4L205.4,299.6z M237.8,299.6
		l0.2,24.1l-15.5,0l0.3-0.6v-23.6H237.8L237.8,299.6z M277.9,299.6c5.5,7.7,9.8,16.3,15.3,24.1l-18.1,0
		c-5.2-8.1-10.2-16.2-15.9-24.1L277.9,299.6L277.9,299.6z M362.7,299.6c1.7,6.7,1,15.1-2.3,20.4c-1,1.4-2.1,2.7-3.3,3.8l18.3,0
		c3.3-5.2,4.9-11.3,5.6-17.6c3,5.1,5.3,10.4,8.9,15.3c0.7,0.8,1.4,1.6,2.1,2.3l16.7,0c-1.5-1.6-2.9-3.3-4.2-5.2
		c-3.8-5.5-6.6-12-8.2-18.9L362.7,299.6L362.7,299.6z M467.1,299.6c-1.8,7-4.8,13.6-9.1,19c-1.5,1.9-3.1,3.6-4.7,5.2l18.1,0
		c5.9-6.2,10.4-13.7,12.6-21.5c0.2-0.9,0.4-1.7,0.6-2.6L467.1,299.6L467.1,299.6z M4.1,323.7c-0.1-2.5,0-5.1,0.3-7.7
		c0.6-5.7,2.5-11.3,5.3-16.5l13.4,0c-3.6,5.6-5.5,12-4.5,19.3c0.2,1.6,0.6,3.2,1.1,4.8L4.1,323.7L4.1,323.7z M308.1,323.7
		c0.3-1.3,0.4-2.7,0.4-4.1l-0.1-20h14.9l-0.2,24.1L308.1,323.7L308.1,323.7z"/>
	<path class="st2" d="M100.8,287.5c5.3,1.3,10.7,2.4,15.9,2.9l1.1,1.1c-1.1,2.7-2.2,5.4-3.3,8.1l11.2,0c1-2.3,2.2-4.5,3.4-6.7
		c17.3,2.2,35,6.1,53.4,3.6l1.8,1.4l0.7,1.7h20.4c-1.2-3.2-2.1-6.5-2.6-9.9c1-0.7,2.1-1.4,3.2-2.2L100.8,287.5L100.8,287.5z
		 M237.7,287.5l0.1,12.1l-15.1,0v-12.1L237.7,287.5L237.7,287.5z M267,287.5c4.3,3.5,7.7,7.7,10.9,12.1l-18.6,0
		c-2.8-4-5.8-7.9-9.1-11.6c-0.2-0.1-0.4-0.3-0.6-0.4L267,287.5L267,287.5z M354,287.5c2.5,1.6,4.6,3.7,6.4,6.5
		c1,1.6,1.8,3.5,2.3,5.6l33.6,0c-0.9-3.9-1.5-8-1.7-12.1l-17.3,0c0,1.2,0.1,2.4,0.2,3.6c-0.8-1.3-1.7-2.5-2.6-3.6L354,287.5
		L354,287.5z M469.1,287.5c-0.3,4.1-1,8.2-2,12.1l17.4,0c0.9-3.9,1.5-8,1.9-12.1L469.1,287.5L469.1,287.5z M9.7,299.6
		c2.5-4.4,5.6-8.5,9.3-12.1l15.7,0C30.1,291,26,295,23,299.6L9.7,299.6L9.7,299.6z M308.4,299.6l0-12.1l15.1,0c0,0.1,0,0.3-0.1,0.4
		l-0.1,11.6H308.4L308.4,299.6z"/>
	<path class="st2" d="M95.2,275.5c9.1,1.6,18.2,3.1,26.9,3.6l2.1-2.5l0.4-1.1l11.1,0c-0.5,1.5-1,3.1-1.5,4.7c13.7,2.3,28.5,3,43,2.1
		c-0.7-2.3-1.5-4.5-2.3-6.8l21.6,0l1,2.5c3.2-0.2,6.3-1.2,9.3-2.5l10.6,0c-2.6,4.7-7.1,8.8-11.4,12.1l-105.2,0
		c-21.3-5.2-43.1-13.7-63.8-1.7c-0.8,0.6-1.6,1.1-2.4,1.7l-15.7,0c3.5-3.3,7.4-6.2,11.7-8.5c2.5-1.4,5-2.6,7.6-3.6L95.2,275.5
		L95.2,275.5z M262.4,275.5c-2.8,1.2-6,1.9-9.1,1.8c-4.2,0.1-9.4,0.4-12.4-1.8l-18.2,0v12.1h14.9l0-0.3l2.5-2.5
		c3.7-1.5,6.7,0.7,9.4,2.8l17.4,0c-1.5-1.2-3.1-2.4-4.8-3.5c6.5-2.2,13.1-4.5,18.7-8.6L262.4,275.5L262.4,275.5z M358.6,275.5
		c-1.1,0.6-2.1,1.2-3.1,1.8c6.9,2.1,14.3,4.6,19.4,10.2l-20.9,0c-7.1-4.7-16.6-5.3-25.9-4.9c-2.6,0.3-4.2,2.4-4.6,4.9l-15.1,0
		l0-12.1H358.6L358.6,275.5z M469.1,275.5c0.3,4,0.3,8.1-0.1,12.1l17.3,0c0.4-4,0.5-8.1,0.3-12.1L469.1,275.5L469.1,275.5z
		 M377.3,287.5c-0.1-4.1,0-8.1,0.4-12.1l17.1,0c-0.4,4-0.5,8-0.3,12.1L377.3,287.5L377.3,287.5z"/>
	<path class="st2" d="M170.7,263.4c1.5,4,2.9,8,4.2,12.1l21.6,0l-4.8-12.1L170.7,263.4L170.7,263.4z M273.6,263.4
		c-0.2,0.5-0.4,1-0.7,1.4c-1.9,4.9-5.8,8.6-10.5,10.6l18.5,0c1.2-0.8,2.3-1.8,3.3-2.8c2.6-2.5,4.4-5.7,5.7-9.3L273.6,263.4
		L273.6,263.4z M357,263.4c-5.9,10-17.6,11.1-28.3,10.7c-1.6-0.7-4.1,0.2-4.6-2.1l0.1-8.6l-16,0l0,12.1l50.3,0
		c3.9-2.1,7.9-3.8,11.1-7.4c1.4-1.4,2.6-3,3.6-4.6L357,263.4L357,263.4z M467.4,263.4c0.9,3.9,1.5,8,1.8,12.1l17.6,0
		c-0.2-4.1-0.7-8.1-1.5-12.1L467.4,263.4L467.4,263.4z M38.2,275.5c17.8-6.7,37.6-3.3,57,0L38.2,275.5L38.2,275.5z M124.6,275.5
		l4.7-12.1l10.5,0c-1.4,4-2.8,8-4.1,12.1L124.6,275.5L124.6,275.5z M206.8,275.5c4.6-2.2,8.9-5.5,12.8-9.2c0.3,3.2-0.5,6.3-2.1,9.2
		L206.8,275.5L206.8,275.5z M222.8,275.5v-12.1l16.1,0c0,3.1,0,6.2-0.1,9.3c0.5,1.2,1.2,2.1,2.2,2.8L222.8,275.5L222.8,275.5z
		 M377.8,275.5c0.4-4.1,1.2-8.2,2.2-12.1l17.2,0c-1.1,3.9-1.9,7.9-2.3,12.1L377.8,275.5L377.8,275.5z"/>
	<path class="st2" d="M166.1,251.3c1.6,4,3.1,8,4.6,12.1l21,0l-4.8-12.1L166.1,251.3L166.1,251.3z M275.3,251.3
		c0.3,4.1-0.2,8.2-1.8,12.1l16.4,0c1.3-3.8,1.9-8,1.9-12.1L275.3,251.3L275.3,251.3z M359.9,251.3c0.2,4.2-0.5,8.5-2.6,11.7
		c-0.1,0.1-0.1,0.2-0.2,0.3h16.3c2.1-3.6,3.2-7.8,3.4-12.1L359.9,251.3L359.9,251.3z M463.6,251.3c1.6,3.8,2.9,7.8,3.8,12.1l17.8,0
		c-0.9-4.2-2.2-8.2-4-12.1L463.6,251.3L463.6,251.3z M129.3,263.4l4.7-12.1h10.3c-1.6,4-3,8-4.5,12.1L129.3,263.4L129.3,263.4z
		 M222.8,263.4v-12.1l15.9,0c0.1,4,0.2,8.1,0.3,12.1L222.8,263.4L222.8,263.4z M308.3,263.4l0-12.1h16.1l-0.1,12.1L308.3,263.4
		L308.3,263.4z M380,263.4c1.1-4.2,2.6-8.2,4.5-12.1l17.5,0c-1.1,2-2,4-2.8,6c-0.8,1.9-1.5,4-2.1,6L380,263.4L380,263.4z"/>
	<path class="st2" d="M134,251.3l21.2-54.8c0.4-1.5,0.4-3.3,2.1-4.3c11.7-1.5,9,12.4,13.5,18.5l16.1,40.6l-20.8,0
		c-3.4-8.6-7-17-11-25.3c-4,8.3-7.5,16.8-10.8,25.3L134,251.3L134,251.3z M222.8,251.3v-29.9c-2.1-7.2-16.9-1.2-12.5-11.7
		c19.4,2,39.3,4.4,58.7,7.5c8.7,2.9,17.8,11.7,20.3,20.6c1.6,4,2.5,8.7,2.5,13.5l-16.5,0c-0.4-6.3-2.6-12.5-4.9-18.2
		c-1.4-2.4-3.5-5.4-6.4-6.4c-6.5-2.6-17-6.1-22.8,0.4c-2.5,7.4-2.8,15.7-2.6,24.2L222.8,251.3L222.8,251.3z M308.2,251.3l-0.1-19.9
		c-2.5-5.5-18.4,0-12.1-11c19,1.9,38.6,2,57.6,3.9c8.4,1.4,17,6.3,21,14.6c1.6,3.8,2.3,8.2,2.1,12.5l-16.9,0
		c-0.2-4.1-1.3-8.2-3-11.4c-2.1-4-6.7-6.6-11-7.5c-7,0.4-17.2-3.1-21.3,3.9l-0.1,15H308.2L308.2,251.3z M384.5,251.3
		c5.5-11.3,14.3-20.6,26.8-26.3c18.1-8.3,41.7-4.2,56.2,8.9c6.2,4.8,10.6,10.8,13.7,17.4l-17.6,0c-0.1-0.2-0.2-0.5-0.3-0.7
		c-6.4-11.7-17.8-22.1-32.7-20.6c-12.8,0.5-22.8,10.6-28.5,21.3L384.5,251.3L384.5,251.3z"/>
	<path class="st3" d="M116.7,290.5l1.1,1.1c-6.4,15-10.9,30.9-19.2,45.2c-12.9,14.2-32.3,18.3-50.9,13.5c-14.1-3-27.3-17-29.2-31.3
		c-2-14.4,7.3-25.4,18.5-33.1C62.9,270.8,90.6,287.9,116.7,290.5L116.7,290.5z M356.9,239.9c3.3,6.4,4.5,16.7,0.4,23.1
		c-5.8,10.3-17.7,11.5-28.5,11c-1.6-0.7-4.1,0.2-4.6-2.1l0.4-35.6c4.2-7,14.3-3.5,21.3-3.9C350.2,233.4,354.7,235.9,356.9,239.9
		L356.9,239.9z M463.3,250.6c8.9,20.5,8.7,50.3-5.3,68c-7.1,9-16.3,14.6-27.4,14.6c-10.7-0.1-19.7-5.4-26-14.6
		c-11.6-16.5-12.9-42.4-5.3-61.2c4.9-12.6,16.1-26.8,31.3-27.4C445.5,228.5,456.9,238.9,463.3,250.6L463.3,250.6z M177.2,282.3
		c-14.6,0.9-29.4,0.2-43-2.1c6-18.5,12.6-36.5,21-54.1C163.9,244.2,170.9,263.1,177.2,282.3L177.2,282.3z M270.4,233.2
		c4,9.7,7.6,21.3,2.5,31.7c-3.1,7.8-11.3,12.6-19.6,12.5c-5.5,0.1-12.5,0.6-14.6-4.6c0.8-15.2-2-31.9,2.5-45.5
		c5.8-6.5,16.3-2.9,22.8-0.4C267,227.7,269,230.8,270.4,233.2L270.4,233.2z M360.4,294c4.3,6.8,4.3,19.1,0,26
		c-5.9,8.3-15.2,11.4-25.6,10.3c-4.4-0.2-9.4-0.5-11.7-4.3l0.4-38.1c0.3-2.7,1.9-5,4.6-5.3C340.6,282.1,353.4,283.3,360.4,294
		L360.4,294z M170.8,210.8l26.7,67.2c8.3-0.6,15.7-5.6,22.1-11.7c1,9.8-9.1,18.4-16.7,23.5c1.3,9.8,6.8,18.8,10.3,28.1
		c2.2,3.2,2.9,8.7,7.8,9.2l1.8-3.9V221.4c-2.1-7.2-16.9-1.2-12.5-11.7c19.4,2,39.3,4.4,58.7,7.5c8.7,2.9,17.8,11.7,20.3,20.6
		c4.2,10.5,3.6,26.4-5,34.9c-6.1,6-14.2,8.7-22.1,11.4c17,10.9,22.7,30.2,34.9,44.8c1.9,1.6,4.8,3,7.1,1.4c3.3-2.5,4.3-6.5,4.3-10.7
		l-0.4-88.2c-2.5-5.5-18.4,0-12.1-11c19,1.9,38.6,2,57.6,3.9c8.4,1.4,17,6.3,21,14.6c3.9,9.4,2.6,21.9-5,29.2
		c-4.1,4.6-9.5,6.1-14.2,9.2c8.3,2.5,17.2,5.5,22.1,13.9c-2-27.6,8.3-54.4,33.8-66.2c18.1-8.3,41.7-4.2,56.2,8.9
		c20.4,15.9,22.1,44.5,16.4,68.3c-5,17.6-21.3,33.2-39.1,37c-20.9,4.7-41.4-1.7-54.8-17.8c-3.6-4.9-5.9-10.2-8.9-15.3
		c-1.2,11.4-5.6,22.1-16.7,27.7c-13.4,7-30.9,4.4-47,5h-30.2l-4.3-3.6c-11.1-15.7-19.8-32.4-32.7-47.3c-2.8-2.1-6-4.8-10-3.2
		l-2.5,2.5l0.4,39.1c2,6,9.1,3.9,13.9,5.3c1.8,1.2,1.6,3.6,1.1,5.3l-2.1,0.7H174c-2.7-1.2-2.3-4.3-1.8-6.4
		c4.4-2.6,10.4-0.8,14.9-2.8c2.1-0.7,4.8-2.6,5.3-5l-0.4-6l-7.8-19.6l-1.8-1.4c-18.4,2.6-36-1.3-53.4-3.6
		c-12.2,20.7-12.2,47.9-34.9,63.7c-17.8,13.6-47.9,15.4-67.2,3.9c-15.7-9.6-25-25.6-22.8-44.5c1.6-15.3,12.4-29.6,26.3-37
		c27.8-16,61.6-1.6,91.4,0l2.1-2.5l31-80c0.4-1.5,0.4-3.3,2.1-4.3C169,190.7,166.3,204.6,170.8,210.8L170.8,210.8z"/>
	<path class="st2" d="M772.4,360.1c-4.5,2.8-9.2,4.9-13.9,6c-16.9,4.2-34.1,2.2-48.3-6L772.4,360.1L772.4,360.1z"/>
	<path class="st2" d="M770.3,348.1c-4,3.2-8.7,5.6-13.5,6.7c-13.1,3.4-27.4,1.4-38-6.7l-23.1,0c4.3,4.9,9.3,8.9,14.7,12.1l62.2,0
		c5.2-3.2,9.9-7.4,13.7-12.1L770.3,348.1L770.3,348.1z"/>
	<path class="st2" d="M506.6,323.9l0,3.1c2.3,5.6,9.1,3.2,14.3,4.3c0.8,1.4,1.5,3.3,0.7,5l-2.4,1.7l-19.3-0.1l-19.2-0.1
		c-2.4-0.6-3.6-3.5-2.5-5.7c2.1-1.7,5.7-1.2,8.5-1.8c2.1-0.9,4-3.1,4.3-5.3l0-1L506.6,323.9L506.6,323.9z M562.4,323.9
		c1.1,1.5,2.2,3,3.3,4.5c1.4,0.4,3.3,2.6,4.8,0.8l1.6-4.7v-0.6l15.7,0v3.8c0.4,1.2,1.9,0.8,2.5,0.4c1.1-1.4,2.1-2.7,3-4.2l16.6,0
		c1.2,2.2,2.7,5.3,5.6,5.6c3.2,1.2,7.3,0.4,10.3,2.1c-0.3,2,0.8,4.6-1.1,6h-67.2l-5-2.1l-8-11.6H562.4L562.4,323.9z M783.6,323.9
		c-0.2,1.5-0.5,3.1-0.9,4.6c-1.7,7.7-6.3,14.6-12.4,19.6l15.9,0c3.4-4.3,6.1-9,7.6-13.9c1.2-3.4,1.9-6.8,2.1-10.2L783.6,323.9
		L783.6,323.9z M695.6,348.1c-0.6-0.7-1.2-1.4-1.8-2.2c-4.3-7-7.6-14.4-10.6-21.9l20.4,0l4.8,12.3l4.6,6.4c1.7,2,3.7,3.8,5.7,5.4
		L695.6,348.1L695.6,348.1z"/>
	<path class="st2" d="M506.6,299.8l0,24.1H491l-0.1-24.1L506.6,299.8L506.6,299.8z M545.4,299.8c5.8,8,11.2,15.9,17.1,24.1l-17.9,0
		l-16.7-24.1L545.4,299.8L545.4,299.8z M587.8,299.8v24.1h-15.7v-24.1L587.8,299.8L587.8,299.8z M613.4,299.8
		c-3.5,7.2-4.9,15.3-3.6,24c0,0,0,0.1,0.1,0.1l-16.6,0c4.9-7.5,7.7-15.9,10.8-24.1L613.4,299.8L613.4,299.8z M779,299.8
		c0.6,0.8,1.1,1.5,1.6,2.3c3.5,6,4.2,13.9,3,21.8l12.3,0c0.6-8.5-1.5-16.8-5.6-24.1L779,299.8L779,299.8z M683.2,323.9
		c-3.3-8.1-6.3-16.3-10.2-24.1l21.2,0l9.4,24.1L683.2,323.9L683.2,323.9z"/>
	<path class="st2" d="M540.7,263.6c-1.3,3.1-3.1,5.9-5.5,8.3c-6.6,6.4-20.7,6.3-28.8,3.6l-1.8-1.8v-10.1l-13.8,0l0.1,36.2l15.7,0
		l0-13l1.4-2.1c5.9-2.4,10.9,3.6,14.2,7.1l5.5,8l17.5,0c-2.1-2.9-4.3-5.8-6.5-8.7c-2.6-2.5-6.6-5-8.4-7.8c9.2-2.8,19-6,24.5-15.3
		c0.8-1.4,1.6-2.9,2.2-4.4L540.7,263.6L540.7,263.6z M587.8,263.6v36.2l-15.7,0v-36.2L587.8,263.6L587.8,263.6z M658.8,263.6
		c2.6,6.8,5.2,13.5,7.6,20.4c-14.3,3.3-31,2.9-45.5,0.4c1.8-7,4.2-13.9,6.9-20.7l-9.6,0l-5.9,15l-2.1,2.5c-7-2.5-13.2-8.4-18.1-14.2
		c-0.9,10.1,7.3,18.1,14.9,24.2v1.4c-1,2.4-2,4.8-2.9,7.3l9.3,0c0.7-1.5,1.6-3,2.5-4.4c16.5,6.3,38.1,4.7,55.5,1.4
		c0.5,1,1.1,2,1.6,3l21.2,0l-2.1-5.5l0.4-1.4c23.3-2.8,47.4-17.4,71.2-5.3c5.5,3,11.4,7,15.5,12.3l11.3,0c-2.1-3.8-4.8-7.3-7.9-10.5
		c-24.5-26.4-65.1-14.9-95-8.2l-1.1-0.7l-6.5-16.8H658.8L658.8,263.6z"/>
	<path class="st2" d="M490.8,263.6l-0.1-27.6c-0.2-9.3-19.3-1.6-11.4-13.2c18.4-1.2,37-1.9,55.1-3.6c9.7,0.3,18.6,8.1,22.4,16.7
		c3.6,8.2,3.9,18.9,0.4,27.6l-16.6,0c3.3-8,2.8-17.6,0.2-25.5c-5.3-10-16.5-7.4-26-6.8c-3.9,1-9.7,3.7-10.3,7.9v24.4L490.8,263.6
		L490.8,263.6z M572.1,263.6v-36.9c-0.6-8.4-18.8-0.3-10.3-11.7c13.3-0.7,25.6-4.1,38.8-5.3c1.2,1.4,0.9,3.9,0,5.3
		c-4.1,3.1-11.2,2-12.8,8.2v40.4L572.1,263.6L572.1,263.6z M618.2,263.6l26.2-67.1c2.6-3.6,11-6.1,10.7,1.4l3.6,11l21.2,54.7h-21
		c-4.6-11.8-9.4-23.4-14.1-35.1l-1.4-0.4c-2.1,3.7-4.4,8.2-6,12.5c-3,7.7-6.4,15.3-9.4,23L618.2,263.6L618.2,263.6z"/>
	<path class="st3" d="M644.7,228.5c7.5,18.4,15.1,36.7,21.7,55.5c-14.3,3.3-31,2.9-45.5,0.4c3.7-14.9,10.7-29.3,16.4-43.8
		c1.6-4.3,3.9-8.7,6-12.5L644.7,228.5L644.7,228.5z M540.8,238.1c3.7,10.9,3.1,25.3-5.7,33.8c-6.6,6.4-20.7,6.3-28.8,3.6l-1.8-1.8
		v-34.5c0.6-4.2,6.4-6.9,10.3-7.9C524.3,230.7,535.5,228.1,540.8,238.1L540.8,238.1z M780.6,302.1c4.2,7.1,4.4,17,2.1,26.4
		c-2.8,12.8-13.7,23.4-26,26.3c-15.7,4-33,0.4-43.8-12.1l-4.6-6.4l-16.4-42l0.4-1.4c23.3-2.8,47.4-17.4,71.2-5.3
		C769.8,290.9,776.5,295.6,780.6,302.1L780.6,302.1z M655,197.9l3.6,11l27.7,71.5l1.1,0.7c29.9-6.8,70.4-18.2,95,8.2
		c11.5,11.7,17.1,28.6,11.4,44.8c-4.5,15.2-20.3,28.3-35.2,32c-24.2,6-49.1-0.7-64.7-20.3c-9.6-15.5-13.9-33.2-22.4-49.1
		c-17.4,3.3-39,4.9-55.5-1.4c-5.2,8.2-7.7,17.9-6,28.5c1.2,2.2,2.8,5.4,5.7,5.7c3.2,1.2,7.3,0.4,10.3,2.1c-0.3,2,0.8,4.6-1.1,6
		h-67.2l-5-2.1l-30.2-43.8c-3.4-3.5-8.4-9.5-14.2-7.1l-1.4,2.1l-0.1,40.2c2.3,5.6,9.1,3.2,14.3,4.3c0.8,1.4,1.5,3.3,0.7,5l-2.4,1.7
		l-19.3-0.1l-19.2-0.1c-2.4-0.6-3.6-3.5-2.5-5.7c2.1-1.7,5.7-1.2,8.5-1.8c2.1-0.9,4-3.1,4.3-5.3l-0.4-88.9
		c-0.2-9.3-19.3-1.6-11.4-13.2c18.4-1.2,37-1.9,55.1-3.6c9.7,0.3,18.6,8.1,22.4,16.7c4.3,9.6,3.8,22.8-1.8,32
		c-5.5,9.3-15.4,12.5-24.5,15.3c1.8,2.8,5.8,5.3,8.4,7.8c9.8,12.6,17.4,24.5,26.9,37.4c1.4,0.4,3.3,2.6,4.8,0.8l1.6-4.7v-97.8
		c-0.6-8.4-18.8-0.3-10.3-11.7c13.3-0.7,25.6-4.1,38.8-5.3c1.2,1.4,0.9,3.9,0,5.3c-4.1,3.1-11.2,2-12.8,8.2v104.6
		c0.4,1.2,1.9,0.8,2.5,0.4c8.6-10.6,11.6-23.6,16.7-35.6v-1.4c-7.6-6-15.8-14.1-14.9-24.2c5,5.8,11.1,11.7,18.1,14.2l2.1-2.5
		l32-82.2C646.9,192.9,655.4,190.3,655,197.9L655,197.9z"/>
	<path class="st4" d="M646,337.6c4,0,7.5-3.1,7.5-7.4c0-4.3-3.4-7.4-7.5-7.4c-4.1,0-7.5,3.1-7.5,7.4
		C638.5,334.4,642,337.6,646,337.6L646,337.6z M640,330.1c0-3.5,2.6-6.2,6-6.2c3.4,0,6,2.6,6,6.2c0,3.6-2.6,6.2-6,6.2
		C642.6,336.3,640,333.7,640,330.1L640,330.1z M644.5,330.7h1.5l2.3,3.7h1.5l-2.4-3.8c1.3-0.2,2.2-0.8,2.2-2.4c0-1.7-1-2.4-3-2.4
		h-3.3v8.5h1.3V330.7L644.5,330.7z M644.5,329.6V327h1.8c0.9,0,1.9,0.2,1.9,1.3c0,1.3-1,1.4-2.1,1.4H644.5L644.5,329.6z"/>
	<path class="st5" d="M181.6,168.5c0-2.3-2.6-1.6-5-1.6c-3.4,0-5.2,2.6-8.5,2.6c-3.4,0-4.7-3.1-8.1-3.1c-3.4,0-5.8,1.3-8.1,3.6
		c9.5,5.8,12.8,18.7,17.7,17.9c2.9-0.4,8,7.4,9.5,4.9c2.7-4.6-2.7-8.5-2.7-13.8c0-2.4,4-0.6,5.8-2.2
		C183.4,175.7,181.6,171.3,181.6,168.5L181.6,168.5z"/>
	<path class="st5" d="M215.1,158.8c-0.8-2.2-2-4-4.3-4c-3.3,0-4.8,2.5-8.1,2.5c-1.9,0-3-0.8-4.9-0.8c-1.9,0-4.5,0.2-4.5,2.1
		c0,2.5,2.8,3.2,2.8,5.7c0,0.8,0,1.3,0,2.1c0,2.1,1.4,3,2.8,4.5c1.9,2.1,2.6,4,2.6,6.8c0,1,0,1.5,0,2.5c0,5.3-4.3,7.7-4.3,13
		c0,1.4,0.5,2.3,0.5,3.7c0,3.1,0,5-1.4,7.8c-1.5,2.8-3.1,4.3-3.1,7.4c0,0.7,0.4,1.4,1.1,1.4c3.1,0,4.5-1.8,7.2-3.5
		c4.7-2.9,8-3.2,12.5-6.3c3.6-2.5,4.9-5,6.3-9.2c1-2.9,1.5-6.2,4.5-6.2c0.8,0,1.2,0,2,0c1.6,0,2.1,1.3,3.4,2.1
		c1.9,1.1,3.2,1.4,5.3,1.4c1.1,0,1.1-1.5,1.1-2.6c0-2.6-1.3-3.8-2.2-6.2c-1.1-2.9-1.1-4.9-1.1-8c0-0.9,0-1.4,0-2.3
		c0-1.2-0.8-1.7-1.4-2.8c-1.1-1.7-1.9-3.4-3.9-3.4c-3.3,0-4.7,2.5-8,2.5c-4,0-5.3-4.7-5.3-8.7C214.7,159.7,214.9,159.4,215.1,158.8
		L215.1,158.8z"/>
	<path class="st5" d="M259.5,130.1c0.7-4.8,4.9-7.7,9.7-7.7c5.8,0,13.2,1.1,13.2,6.9c0,4.9-5.6,6.5-5.6,11.4c0,4.6,3.9,6.6,3.9,11.3
		c0,6.2-2.8,9.7-2.8,15.9c0,2,1.7,3.1,1.7,5.1c0,1-0.8,1.7-1.1,2.5c-7.3-1.5-7-9.3-11.8-14.6c-4.8-5.4-11-5.6-13.8-12.3
		c-1.8,0.3-2.7,1.1-4.5,1.1c-4.6,0-6.1-5.4-10.7-5.6c-0.1-1.3-0.6-2.1-0.6-3.4c0-3,4.5-1.5,6.8-3.4c3.1-2.5,4.2-7.2,8.4-7.2
		c2,0,3.1,1,5.1,1C258.9,131.1,258.1,130.7,259.5,130.1L259.5,130.1z"/>
	<path class="st5" d="M387.7,4.8c-2.2,0-3.1,1.6-5.2,2.4c-3.4,1.4-5.8,1.5-8.6,4c-2.5,2.2-2.1,4.9-2.1,8.2c0,1.7-0.3,3,0.8,4.4
		c0.8,1.1,2.3,1.2,2.3,2.5c0,3.7-4.9,4.4-4.9,8.1c0,3.1,3.1,4.9,6.2,4.9c4.9,0,5.2-7.5,10.1-7.5c2.2,0,3.4,0.6,5.5,0.6
		c1.3,0,2-0.6,3.3-1c0.5-0.2,1.3-0.1,1.3-0.7c0-3.8-3.6-4.8-6.5-7.1c-2.8-2.2-3.9-4.9-3.9-8.5c0-2,0.7-3.2,2.1-4.7
		c1.1-1.1,2.9-1.3,2.9-2.9C391.1,5.9,389.4,4.8,387.7,4.8L387.7,4.8z"/>
	<path class="st5" d="M363.2,6.4c-2.6,3-9.7,10.9-13.4,16.1c-1.7,2.4-1.9,5.9-4.4,8.6c-4.6,5-12.7,0-17.7,4.8
		c4.7,7.7,5.2,19.8,14.2,19.8c3.8,0,6-1.5,8.9-3.8c0.9,5,4.9,8.1,9.9,8.1c8.1,0,10.3-5.7,17.8-10.8c5.3-3.6-10.9-6.9-10.9-13.4
		c0-3.8,0-5.6,0-9.4C367.7,19,365.5,13.5,363.2,6.4L363.2,6.4z"/>
	<path class="st5" d="M303.6,27.5h3.2c-0.1,2.4-0.2,3.9,0.3,6.2c1.7,7.9,7.5,12.2,7.5,20.5c0,6.4-8.4,9-8.4,15.4
		c0,6.8,8.2,3.1,8.2,9.9c0,7.6-2.2,20.5-15.9,20.5c-6.7,0-7.2,8.9-13.9,8.9c-4.6,0-4.6-6.3-4.6-10.9c0-3.5,0.7-5.5,0.5-9
		c0,0-8.8-5.7-14.9-6.7c-3.7-0.6-8-4.4-12-6.5c-4.6-0.7-5.8-5.9-10.3-5.9c-6.6,0-5.9,1.3-12.4,2c-11.4,1.2,9.2-16.8,20.6-16.8
		c5.8,0,8.8,1.1,14.6,1.1c4.3,0,4.9-1.6,7.1-5.2l-1.4-9.9c2.3-1.2,4.5-0.9,7.2-0.9c3.6,0,5.5,2.1,9.1,2.1c3.1,0,2.1-4.6,4.6-6.4
		C296.8,32.6,300.2,31.6,303.6,27.5L303.6,27.5z"/>
	<path class="st5" d="M363.9,88.1c0-3.9,3.5-5.7,3.5-9.6c0-5.7-5.8-7.3-11-9.6c-3.5-1.5-3.8-6.5-7.7-6.5c-3.4,0-2.3,5.3-4.6,7.6
		c-4.6,4.6-11.1,2.3-14.9,7.5c-2.9,3.9,6.5,4.7,6.5,9.7c0,5.6-2.7,8-2.7,13.5c0,1.8,1.4,2.6,1.1,4.3c-1.5,7.5-5.2,2.1-5.2,10.9
		c0,1.8-0.7,13.8-0.7,15.5c1.2,0,2,0.3,3.3,0.3c4.5,0,4.7-5.4,7.9-8.4c5.4-5.2,11.1-4.3,17.8-8c2.8-1.5,1.5-7.1,4.9-7.1
		c5.4,0,4.8,9.5,10.2,9.5c7.7,0,3.6-17.6,11.3-18.5c-1.4-6.4-4.9-12.1-11.3-12.1C369.7,87.2,366.3,88.1,363.9,88.1L363.9,88.1z"/>
	<path class="st6" d="M249.4,161.5l-2.4-3.7c-0.8-1.2-3.8-0.4-6.5-0.1c-1.5,0.1-2.3,3.2-2.3,4.7c0,8.1,14.2,7.2,14.2,15.3
		c0,6.5-7.5,11.3-13.7,9.5 M197.4,177.3c-4.1,17.5-10,26.4-18.7,42.2 M175.6,180.6c8.8-1.2,13.7-2.7,21.4-6.9 M246.1,74.5
		C223.5,96,211,115.4,211,146.7c0,1.9,0,3.1,0,5 M265.4,85.1c-28.2,11-36.3,30.9-53,56 M258.4,90c-7.9,10.3-13.8,17.4-13.8,30.4
		c0,5.8,3.1,10.3,8.7,12.1 M214.6,156.6c1.4,0,2.2,0,3.5,0c9.2,0,14.1-4.6,21.7-9.6 M269.5,119.7c4.6-5,7.5-8.4,10.7-14.4
		 M315.5,57.9c5.7-5.2,9.4-7.7,16-11.7 M318.7,68.3c2.2,0,5.9,1,8,1c10.6,0,14.8-7.6,22.4-15.2 M369.9,26.9
		c4.2,0.7,6.6,0.9,10.8,0.9c7.5,0,11.5-0.9,19-0.9c4.3,0,10.8,0.6,10.8,5c0,7.2-6.6,10.3-13.5,12.7 M389.2,30.7
		c7.2,0.9,11.1,2.8,17.9,5.2c5,1.8,12.2,4.3,12.2,9.6c0,14.4-8.5,21.6-22.9,21.6c-6.5,0-11.5-5-11.5-11.5c0-4.3,1.7-7,4-10.5
		 M349.8,60.6c18.6,0,37.8,10.7,37.8,29.3c0,8.8-5.7,18.4-14.5,17.5"/>
	<path class="st7" d="M358.1,69.3c17.4-14,36.9-21.6,59.3-24 M223.8,150.1c7.6-7.9,11.9-12.6,17.9-21.7 M248.8,117.2
		c12.3-9.1,17.4-17.1,28.7-27.1 M307.6,70.1c9.9-8.4,17.9-12.2,30.8-12.2"/>
	<path class="st8" d="M379.9,44.9c5.6-1.8,8.7-5,14.5-5c1.2,0,1.9,0.4,3.1,0.5c0.3,0.8,0.7,1.4,1.1,2.2c-4.3,3.4-7.9,4.6-13.4,4.6
		c-2.2,0-5.8-1.8-7.5-3.1c3.8-0.5,8,0.3,11.8,0.9L379.9,44.9L379.9,44.9z"/>
	<path class="st9" d="M369,67.5c4.6-1.8,6.8-3.5,10.9-6.2"/>
	<path class="st10" d="M354.3,90c-4.1,0.3-6.2,4.4-6.2,8.4c0,7.6,5.4,14.6,13,14.6c1,0,1.7,0,2.7,0c0.8,0,1.2-0.1,2-0.3"/>
	<path class="st6" d="M354.2,90.1c-4.1,0.3-6.2,4.4-6.2,8.4c0,7.6,5.4,14.6,13,14.6c1,0,1.7,0,2.7,0c0.8,0,1.2-0.1,2-0.3"/>
	<path class="st10" d="M198.1,191c11-8.5,14.9-15.5,22.2-26.6"/>
	<path class="st6" d="M197.7,191.2c11-8.5,14.9-15.5,22.2-26.6"/>
	<path class="st5" d="M631,167.6c0-2.3,2.6-1.6,5-1.6c3.4,0,5.2,2.6,8.5,2.6c3.4,0,4.7-3.1,8.1-3.1c3.4,0,5.8,1.3,8.1,3.6
		c-9.5,5.8-12.8,18.7-17.7,17.9c-2.9-0.4-8,7.4-9.5,4.9c-2.7-4.6,2.7-8.5,2.7-13.8c0-2.4-4-0.6-5.8-2.2
		C629.3,174.9,631,170.5,631,167.6L631,167.6z"/>
	<path class="st5" d="M597.6,158c0.8-2.2,2-4,4.3-4c3.3,0,4.8,2.5,8.1,2.5c1.9,0,3-0.8,4.9-0.8c1.9,0,4.5,0.2,4.5,2.1
		c0,2.5-2.8,3.2-2.8,5.7c0,0.8,0,1.3,0,2.1c0,2.1-1.4,3-2.8,4.5c-1.9,2.1-2.6,4-2.6,6.8c0,1,0,1.5,0,2.5c0,5.3,4.3,7.7,4.3,13
		c0,1.4-0.5,2.3-0.5,3.7c0,3.1,0,5,1.4,7.8c1.5,2.8,3.1,4.3,3.1,7.4c0,0.7-0.4,1.4-1.1,1.4c-3.1,0-4.5-1.8-7.2-3.5
		c-4.7-2.9-8-3.2-12.5-6.3c-3.6-2.5-4.9-5-6.3-9.2c-1-2.9-1.5-6.2-4.5-6.2c-0.8,0-1.2,0-2,0c-1.6,0-2.1,1.3-3.4,2.1
		c-1.9,1.1-3.2,1.4-5.3,1.4c-1.1,0-1.1-1.5-1.1-2.6c0-2.6,1.3-3.8,2.2-6.2c1.1-2.9,1.1-4.9,1.1-8c0-0.9,0-1.4,0-2.3
		c0-1.2,0.8-1.7,1.4-2.8c1.1-1.7,1.9-3.4,3.9-3.4c3.3,0,4.7,2.5,8,2.5c4,0,5.3-4.7,5.3-8.7C598,158.9,597.8,158.6,597.6,158
		L597.6,158z"/>
	<path class="st5" d="M553.2,129.2c-0.7-4.8-4.9-7.7-9.7-7.7c-5.8,0-13.2,1.1-13.2,6.9c0,4.9,5.6,6.5,5.6,11.4
		c0,4.6-3.9,6.6-3.9,11.3c0,6.2,2.8,9.7,2.8,15.9c0,2-1.7,3.1-1.7,5.1c0,1,0.8,1.7,1.1,2.5c7.3-1.5,7-9.3,11.8-14.6
		c4.8-5.4,11-5.6,13.8-12.3c1.8,0.3,2.7,1.1,4.5,1.1c4.6,0,6.1-5.4,10.7-5.6c0.1-1.3,0.6-2.1,0.6-3.4c0-3-4.5-1.5-6.8-3.4
		c-3.1-2.5-4.2-7.2-8.4-7.2c-2,0-3.1,1-5.1,1C553.7,130.2,554.6,129.8,553.2,129.2L553.2,129.2z"/>
	<path class="st5" d="M425,4c2.2,0,3.1,1.6,5.2,2.4c3.4,1.4,5.8,1.5,8.6,4c2.5,2.2,2.1,4.9,2.1,8.2c0,1.7,0.3,3-0.8,4.4
		c-0.8,1.1-2.3,1.2-2.3,2.5c0,3.7,4.9,4.4,4.9,8.1c0,3.1-3.1,4.9-6.2,4.9c-4.9,0-5.2-7.5-10.1-7.5c-2.2,0-3.4,0.6-5.5,0.6
		c-1.3,0-2-0.6-3.3-1c-0.5-0.2-1.3-0.1-1.3-0.7c0-3.8,3.6-4.8,6.5-7.1c2.8-2.2,3.9-4.9,3.9-8.5c0-2-0.7-3.2-2.1-4.7
		c-1.1-1.1-2.9-1.3-2.9-2.9C421.6,5.1,423.3,4,425,4L425,4z"/>
	<path class="st5" d="M449.4,5.6c2.6,3,9.7,10.9,13.4,16.1c1.7,2.4,1.9,5.9,4.4,8.6c4.6,5,12.7,0,17.7,4.8
		c-4.7,7.7-5.2,19.8-14.2,19.8c-3.8,0-6-1.5-8.9-3.8c-0.9,5-4.9,8.1-9.9,8.1c-8.1,0-10.3-5.7-17.8-10.8c-5.3-3.6,10.9-6.9,10.9-13.4
		c0-3.8,0-5.6,0-9.4C444.9,18.2,447.1,12.7,449.4,5.6L449.4,5.6z"/>
	<path class="st5" d="M509,26.7h-3.2c0.1,2.4,0.2,3.9-0.3,6.2c-1.7,7.9-7.5,12.2-7.5,20.5c0,6.4,8.4,9,8.4,15.4
		c0,6.8-8.2,3.1-8.2,9.9c0,7.6,2.2,20.5,15.9,20.5c6.7,0,7.2,8.9,13.9,8.9c4.6,0,4.6-6.3,4.6-10.9c0-3.5-0.7-5.5-0.5-9
		c0,0,8.8-5.7,14.9-6.7c3.7-0.6,8-4.4,12-6.5c4.6-0.7,5.8-5.9,10.3-5.9c6.6,0,5.9,1.3,12.4,2c11.4,1.2-9.2-16.8-20.6-16.8
		c-5.8,0-8.8,1.1-14.6,1.1c-4.3,0-4.9-1.6-7.1-5.2l1.4-9.9c-2.3-1.2-4.5-0.9-7.2-0.9c-3.6,0-5.5,2.1-9.1,2.1c-3.1,0-2.1-4.6-4.6-6.4
		C515.8,31.8,512.5,30.7,509,26.7L509,26.7z"/>
	<path class="st5" d="M448.7,87.3c0-3.9-3.5-5.7-3.5-9.6c0-5.7,5.8-7.3,11-9.6c3.5-1.5,3.8-6.5,7.7-6.5c3.4,0,2.3,5.3,4.6,7.6
		c4.6,4.6,11.1,2.3,14.9,7.5c2.9,3.9-6.5,4.7-6.5,9.7c0,5.6,2.7,8,2.7,13.5c0,1.8-1.4,2.6-1.1,4.3c1.5,7.5,5.2,2.1,5.2,10.9
		c0,1.8,0.7,13.8,0.7,15.5c-1.2,0-2,0.3-3.3,0.3c-4.5,0-4.7-5.4-7.9-8.4c-5.4-5.2-11.1-4.3-17.8-8c-2.8-1.5-1.5-7.1-4.9-7.1
		c-5.4,0-4.8,9.5-10.2,9.5c-7.7,0-3.6-17.6-11.3-18.5c1.4-6.4,4.9-12.1,11.3-12.1C442.9,86.3,446.3,87.3,448.7,87.3L448.7,87.3z"/>
	<path class="st6" d="M563.2,160.6l2.4-3.7c0.8-1.2,3.8-0.4,6.5-0.1c1.5,0.1,2.3,3.2,2.3,4.7c0,8.1-14.2,7.2-14.2,15.3
		c0,6.5,7.5,11.3,13.7,9.5 M615.2,176.5c4.1,17.5,10,26.4,18.7,42.2 M637,179.8c-8.8-1.2-13.7-2.7-21.4-6.9 M566.5,73.6
		c22.6,21.6,35.1,40.9,35.1,72.3c0,1.9,0,3.1,0,5 M547.2,84.2c28.2,11,36.3,30.9,53,56 M554.3,89.1c7.9,10.3,13.8,17.4,13.8,30.4
		c0,5.8-3.1,10.3-8.7,12.1 M598.1,155.8c-1.4,0-2.2,0-3.5,0c-9.2,0-14.1-4.6-21.7-9.6 M543.1,118.8c-4.6-5-7.5-8.4-10.7-14.4
		 M497.1,57c-5.7-5.2-9.4-7.7-16-11.7 M494,67.5c-2.2,0-5.9,1-8,1c-10.6,0-14.8-7.6-22.4-15.2 M442.7,26c-4.2,0.7-6.6,0.9-10.8,0.9
		c-7.5,0-11.5-0.9-19-0.9c-4.3,0-10.8,0.6-10.8,5c0,7.2,6.6,10.3,13.5,12.7 M423.4,29.8c-7.2,0.9-11.1,2.8-17.9,5.2
		c-5,1.8-12.2,4.3-12.2,9.6c0,14.4,8.5,21.6,22.9,21.6c6.5,0,11.5-5,11.5-11.5c0-4.3-1.7-7-4-10.5 M462.9,59.7
		C444.3,59.7,425,70.5,425,89c0,8.8,5.7,18.4,14.5,17.5"/>
	<path class="st7" d="M454.6,68.5c-17.4-14-36.9-21.6-59.3-24 M588.9,149.3c-7.6-7.9-11.9-12.6-17.9-21.7 M563.8,116.3
		c-12.3-9.1-17.4-17.1-28.7-27.1 M505,69.3c-9.9-8.4-17.9-12.2-30.8-12.2"/>
	<path class="st8" d="M432.8,44c-5.6-1.8-8.7-5-14.5-5c-1.2,0-1.9,0.4-3.1,0.5c-0.3,0.8-0.7,1.4-1.1,2.2c4.3,3.4,7.9,4.6,13.4,4.6
		c2.2,0,5.8-1.8,7.5-3.1c-3.8-0.5-8,0.3-11.8,0.9L432.8,44L432.8,44z"/>
	<path class="st9" d="M443.6,66.7c-4.6-1.8-6.8-3.5-10.9-6.2"/>
	<path class="st10" d="M458.3,89.1c4.1,0.3,6.2,4.4,6.2,8.4c0,7.6-5.4,14.6-13,14.6c-1,0-1.7,0-2.7,0c-0.8,0-1.2-0.1-2-0.3"/>
	<path class="st6" d="M458.4,89.3c4.1,0.3,6.2,4.4,6.2,8.4c0,7.6-5.4,14.6-13,14.6c-1,0-1.7,0-2.7,0c-0.8,0-1.2-0.1-2-0.3"/>
	<path class="st10" d="M614.6,190.1c-11-8.5-14.9-15.5-22.2-26.6"/>
	<path class="st6" d="M615,190.4c-11-8.5-14.9-15.5-22.2-26.6"/>
</g>
</svg>
